<?xml version="1.0" standalone="no"?>
<!DOCTYPE svg PUBLIC "-//W3C//DTD SVG 20010904//EN"
 "http://www.w3.org/TR/2001/REC-SVG-20010904/DTD/svg10.dtd">
<svg version="1.0" xmlns="http://www.w3.org/2000/svg"
 width="300.000000pt" height="300.000000pt" viewBox="0 0 300.000000 300.000000"
 preserveAspectRatio="xMidYMid meet">
<metadata>
Created by potrace 1.11, written by Peter Selinger 2001-2013
</metadata>
<g transform="translate(0.000000,300.000000) scale(0.100000,-0.100000)"
fill="#000000" stroke="none">
<path d="M1972 2375 c-64 -18 -100 -36 -141 -71 -101 -85 -117 -246 -35 -343
45 -52 110 -83 264 -125 195 -53 227 -71 232 -133 5 -74 -53 -115 -168 -119
-95 -4 -164 26 -193 85 -12 22 -21 49 -21 61 0 19 -6 20 -101 20 l-102 0 7
-46 c7 -55 39 -130 69 -163 34 -37 117 -86 172 -102 51 -14 211 -19 276 -8 48
8 148 55 177 82 50 47 75 105 80 186 4 89 -9 128 -63 184 -52 53 -100 75 -270
119 -82 21 -160 46 -173 54 -33 22 -47 57 -36 95 13 44 50 69 115 76 102 10
181 -31 195 -103 l6 -34 101 0 100 0 -6 51 c-14 112 -107 207 -232 234 -66 15
-200 15 -253 0z"/>
<path d="M1122 2343 c-9 -27 -309 -821 -331 -875 l-11 -28 105 0 c99 0 104 1
111 23 3 12 20 59 36 105 l30 82 173 0 173 0 33 -101 c18 -56 38 -103 44 -105
6 -3 54 -3 107 -2 l96 3 -172 460 -171 460 -107 3 -106 3 -10 -28z m179 -390
c27 -78 49 -144 49 -147 0 -3 -52 -6 -115 -6 -63 0 -115 4 -115 9 0 5 22 69
48 142 27 74 52 148 56 164 l8 30 10 -25 c5 -14 32 -89 59 -167z"/>
<path d="M2610 1905 l0 -466 102 3 103 3 0 450 c1 248 -1 456 -3 463 -3 8 -33
12 -103 12 l-99 0 0 -465z"/>
<path d="M300 2344 c0 -3 -5 -35 -10 -72 -13 -81 -17 -118 -19 -154 -1 -28 -2
-28 -66 -28 l-65 0 0 -60 0 -60 55 0 54 0 -5 -41 c-3 -22 -7 -48 -9 -57 -2 -9
-4 -25 -4 -34 -1 -15 -11 -18 -65 -18 l-64 0 0 -60 0 -60 54 0 55 0 -7 -47
c-3 -27 -8 -57 -10 -68 -2 -11 -7 -45 -10 -75 -3 -30 -8 -58 -10 -62 -3 -5 24
-8 60 -8 72 0 69 -4 81 100 3 25 8 65 12 90 4 25 7 50 8 55 0 6 28 11 63 13
l63 3 -5 -33 c-2 -18 -8 -60 -11 -93 -4 -33 -10 -77 -15 -98 l-8 -38 66 3 66
3 13 95 c7 52 15 106 17 120 2 14 5 28 5 33 1 4 26 7 56 7 l55 0 0 60 0 60
-49 0 -48 0 9 53 c17 104 12 97 73 97 l55 0 0 60 0 60 -48 0 -49 0 9 60 c4 33
10 73 12 88 2 15 7 46 11 70 l7 42 -65 0 -65 0 -7 -52 c-4 -29 -8 -64 -10 -78
-2 -14 -6 -49 -10 -77 l-7 -53 -63 0 c-61 0 -64 1 -60 23 3 12 7 42 10 67 10
86 17 135 22 153 4 15 -4 17 -61 17 -36 0 -66 -3 -66 -6z m193 -421 c-3 -27
-7 -55 -9 -63 -1 -8 -3 -21 -3 -27 -1 -9 -21 -13 -65 -13 l-63 0 9 53 c17 104
12 97 78 97 l59 0 -6 -47z"/>
<path d="M29 1100 c0 -11 -1 -120 -1 -242 l-1 -223 50 -3 49 -3 0 170 c-1 94
2 167 5 163 3 -4 20 -50 37 -102 18 -52 43 -124 55 -160 l24 -65 42 0 43 0 56
167 57 168 3 -170 2 -170 50 0 50 0 0 245 0 245 -75 0 c-52 0 -77 -4 -80 -12
-2 -7 -26 -83 -54 -168 -43 -134 -51 -152 -59 -130 -5 14 -31 89 -57 168 l-47
142 -74 0 c-67 0 -74 -2 -75 -20z"/>
<path d="M1920 1081 l0 -41 48 0 47 0 0 38 0 37 -47 3 -48 3 0 -40z"/>
<path d="M2490 875 l0 -245 48 0 48 0 0 245 0 245 -48 0 -48 0 0 -245z"/>
<path d="M1050 1035 c0 -55 0 -55 -30 -55 -28 0 -30 -3 -27 -27 3 -22 10 -29
30 -31 30 -4 28 10 28 -177 1 -99 15 -115 102 -122 l67 -6 0 41 c0 39 -2 41
-32 44 l-33 3 -3 108 -3 107 36 0 c32 0 35 2 35 30 0 28 -3 30 -35 30 l-35 0
0 55 0 55 -50 0 -50 0 0 -55z"/>
<path d="M725 983 c-46 -12 -81 -49 -90 -92 -3 -16 4 -19 45 -20 40 0 49 3 53
19 6 24 50 42 83 34 44 -11 55 -66 16 -78 -16 -5 -100 -17 -129 -19 -7 0 -27
-13 -45 -28 -29 -23 -33 -33 -33 -73 0 -36 5 -51 27 -73 24 -23 36 -27 85 -28
35 0 71 7 91 17 26 14 32 14 32 2 0 -10 13 -14 48 -14 l47 0 -2 144 c-2 165
-10 189 -72 206 -37 10 -120 12 -156 3z m124 -252 c-11 -32 -48 -51 -89 -44
-28 4 -40 19 -40 50 0 27 11 34 75 48 45 11 51 10 57 -6 4 -10 3 -32 -3 -48z"/>
<path d="M1349 971 c-18 -9 -46 -33 -63 -54 -28 -35 -31 -45 -31 -110 0 -89
25 -135 89 -166 94 -46 215 -7 241 77 6 20 3 22 -30 22 -25 0 -47 -8 -67 -25
-32 -27 -67 -32 -101 -14 -28 15 -37 28 -37 57 0 22 2 22 125 22 l125 0 0 33
c0 17 -11 55 -24 83 -19 41 -33 55 -69 73 -51 25 -108 26 -158 2z m130 -77
c37 -47 29 -54 -54 -54 -84 0 -95 12 -53 57 30 33 80 31 107 -3z"/>
<path d="M1814 980 c-12 -4 -31 -21 -43 -36 l-21 -27 0 32 c0 30 -1 31 -47 31
l-48 0 1 -163 c1 -89 2 -168 3 -175 1 -9 15 -12 48 -10 l48 3 1 90 c1 125 1
123 29 150 16 17 35 25 58 25 30 0 35 4 39 28 8 59 -12 75 -68 52z"/>
<path d="M2185 983 c-35 -9 -73 -42 -83 -73 -13 -34 -6 -41 40 -38 22 1 42 11
60 30 23 24 34 28 59 24 35 -5 46 -14 49 -36 6 -39 6 -38 -90 -56 -19 -4 -42
-6 -51 -6 -24 1 -82 -51 -86 -77 -2 -13 1 -40 7 -61 9 -32 17 -41 53 -54 49
-19 116 -15 151 8 21 13 25 13 30 1 4 -10 20 -15 49 -15 l44 0 -3 73 c-2 39
-3 106 -3 148 -1 87 -16 113 -72 129 -35 10 -119 12 -154 3z m131 -216 c-8
-67 -48 -96 -106 -76 -24 9 -30 17 -30 40 0 32 16 44 74 53 22 4 42 9 44 11
10 10 20 -6 18 -28z"/>
<path d="M2723 980 c-43 -14 -73 -54 -73 -99 0 -47 27 -77 83 -92 136 -37 156
-51 123 -88 -31 -34 -108 -22 -121 18 -5 17 -15 21 -52 21 -44 0 -45 -1 -38
-27 9 -39 24 -53 73 -75 85 -38 203 -11 234 53 18 36 14 86 -9 111 -19 21
-105 51 -165 57 -4 1 -14 8 -22 17 -12 12 -13 20 -6 35 18 33 110 20 110 -16
0 -11 13 -15 50 -15 l50 0 -13 32 c-20 49 -55 70 -128 74 -35 2 -78 -1 -96 -6z"/>
<path d="M1920 806 l0 -176 48 0 49 0 -1 173 -1 172 -47 3 -48 3 0 -175z"/>
</g>
</svg>
